<svg width="24" height="24" viewBox="0 0 24 24" fill="none"
    xmlns="http://www.w3.org/2000/svg">
    <path d="M3 3L21 21M10.584 10.587C10.2087 10.9624 9.99778 11.4708 9.99756 12.0013C9.99734 12.5319 10.2078 13.0405 10.5828 13.4162C10.9578 13.7918 11.4662 14.0027 11.9968 14.0029C12.5273 14.0032 13.0359 13.7927 13.4116 13.4177M17.357 17.349C15.726 18.449 13.942 19 12 19C7 19 2.73 15.89 1 11.5C2.13 8.67 4.08 6.34 6.632 4.659M9.363 5.365C10.2204 5.11972 11.1082 4.99684 12 5C17 5 21.27 8.11 23 12.5C22.393 14.052 21.49 15.46 20.349 16.64" stroke="currentColor" stroke-width="1.5" stroke-linecap="round" stroke-linejoin="round"/>
</svg>
