<svg width="20" height="20" viewBox="0 0 20 20" fill="none"
    xmlns="http://www.w3.org/2000/svg">
    <path d="M18.308 13.25L15.12 12.454C14.539 12.325 13.933 12.448 13.44 12.794L11.9 13.75C9.07 12.49 6.51 9.93 5.25 7.1L6.206 5.56C6.552 5.067 6.675 4.461 6.546 3.88L5.75 0.692C5.63 0.139 5.193 -0.26 4.625 -0.26H1.25C0.56 -0.26 -0.01 0.31 0.07 1C0.43 5.68 2.42 10.1 5.9 13.58C9.38 17.06 13.8 19.05 18.48 19.41C19.17 19.49 19.74 18.92 19.74 18.23V14.855C19.74 14.287 19.341 13.85 18.788 13.73L18.308 13.25Z" fill="currentColor"/>
</svg>