<svg width="40" height="40" viewBox="0 0 24 24" fill="none"
    xmlns="http://www.w3.org/2000/svg">
    <circle cx="12" cy="12" r="12" fill="white" fill-opacity="0.2" />
    <g transform="translate(7, 7) scale(0.35)">
        <path d="M26.7377 2.14174C26.7275 2.09223 26.7033 2.04666 26.6681 2.01037C26.633 1.97409 26.5881 1.94859 26.539 1.93686C23.2603 1.13524 15.6847 3.99184 11.5803 8.09452C10.8483 8.82065 10.1809 9.60921 9.5858 10.4512C8.32012 10.3393 7.05444 10.4328 5.97573 10.903C2.93216 12.2425 2.04602 15.7379 1.79915 17.2415C1.78515 17.3238 1.79043 17.4082 1.81458 17.4881C1.83873 17.568 1.88109 17.6412 1.93833 17.702C1.99557 17.7627 2.06613 17.8094 2.14445 17.8383C2.22278 17.8672 2.30674 17.8775 2.38973 17.8684L7.27723 17.3293C7.28071 17.6978 7.30295 18.0659 7.34385 18.4321C7.36844 18.6864 7.48134 18.9241 7.66293 19.1039L9.55557 20.992C9.73551 21.1733 9.97308 21.2862 10.2273 21.3111C10.5915 21.3518 10.9575 21.374 11.3239 21.3777L10.7877 26.2591C10.7787 26.342 10.7891 26.4259 10.818 26.5042C10.847 26.5825 10.8936 26.653 10.9543 26.7102C11.0151 26.7674 11.0883 26.8098 11.1681 26.834C11.248 26.8582 11.3323 26.8635 11.4146 26.8497C12.9154 26.6089 16.4169 25.7228 17.7486 22.6792C18.2188 21.6005 18.3151 20.341 18.2065 19.0815C19.0506 18.4863 19.8412 17.8188 20.5694 17.0864C24.6866 12.9899 27.527 5.58332 26.7377 2.14174ZM16.4617 12.1994C16.0857 11.8237 15.8296 11.345 15.7258 10.8237C15.622 10.3024 15.6751 9.76207 15.8784 9.27098C16.0817 8.7799 16.4261 8.36015 16.868 8.06482C17.3099 7.76949 17.8295 7.61186 18.361 7.61186C18.8925 7.61186 19.4121 7.76949 19.854 8.06482C20.2959 8.36015 20.6403 8.7799 20.8436 9.27098C21.047 9.76207 21.1001 10.3024 20.9963 10.8237C20.8924 11.345 20.6363 11.8237 20.2604 12.1994C20.0111 12.4491 19.715 12.6472 19.3891 12.7823C19.0632 12.9174 18.7138 12.987 18.361 12.987C18.0082 12.987 17.6589 12.9174 17.333 12.7823C17.007 12.6472 16.711 12.4491 16.4617 12.1994Z" fill="white" />
        <path d="M9.42686 22.3596C9.12009 22.6669 8.62804 22.7867 8.03578 22.8891C6.70517 23.1158 5.53017 21.966 5.7692 20.6209C5.86045 20.1109 6.13027 19.3961 6.2982 19.2281C6.33491 19.1921 6.35934 19.1455 6.36803 19.0948C6.37672 19.0441 6.36922 18.992 6.3466 18.9458C6.32398 18.8997 6.28739 18.8618 6.24202 18.8376C6.19666 18.8134 6.14482 18.8041 6.09388 18.8111C5.34979 18.9021 4.65754 19.2395 4.12735 19.7694C2.81128 21.0866 2.68701 25.9741 2.68701 25.9741C2.68701 25.9741 7.57732 25.8498 8.89338 24.5327C9.42495 24.0029 9.76272 23.3096 9.85229 22.5645C9.87301 22.3305 9.58807 22.1911 9.42686 22.3596Z" fill="white" />
    </g>
</svg>
