<svg width="120" height="120" viewBox="0 0 77 77" fill="none"
    xmlns="http://www.w3.org/2000/svg" style="transform: rotate(-12deg)">
    <g clip-path="url(#clip0_325_1521)">
        <path d="M12.7869 54.3046C11.3597 53.9736 10.2561 53.1827 9.47617 51.9317C8.69621 50.6807 8.47105 49.3406 8.8007 47.9113L16.022 16.7728C16.353 15.3456 17.1448 14.2422 18.3975 13.4626C19.6502 12.6831 20.9895 12.4577 22.4153 12.7866L63.9334 22.415C65.3606 22.746 66.4648 23.538 67.2461 24.7911C68.0274 26.0442 68.2519 27.3833 67.9196 28.8083L60.6982 59.9468C60.3673 61.374 59.5761 62.4785 58.3247 63.2602C57.0734 64.0419 55.7334 64.2662 54.3049 63.933L12.7869 54.3046ZM13.9904 49.1148L55.5085 58.7433L61.5263 32.7945L20.0082 23.1661L13.9904 49.1148ZM23.6743 48.6262L20.884 44.1509L29.1304 38.9538L23.9483 30.6425L28.4885 27.8672L36.4609 40.6538L23.6743 48.6262ZM35.3512 51.3342L36.5548 46.1444L52.1241 49.7551L50.9205 54.9449L35.3512 51.3342Z" fill="white" />
    </g>
    <defs>
        <clipPath id="clip0_325_1521">
            <rect width="63.9298" height="63.9298" fill="white" transform="translate(14.4429) rotate(13.0567)" />
        </clipPath>
    </defs>
</svg>
