<svg width="24" height="24" viewBox="0 0 24 24" fill="none"
    xmlns="http://www.w3.org/2000/svg">
    <path d="M23.498 6.186C23.228 5.154 22.456 4.338 21.474 4.058C19.694 3.55 12 3.55 12 3.55C12 3.55 4.306 3.55 2.526 4.058C1.544 4.338 0.772 5.154 0.502 6.186C0 8.07 0 12 0 12C0 12 0 15.93 0.502 17.814C0.772 18.846 1.544 19.662 2.526 19.942C4.306 20.45 12 20.45 12 20.45C12 20.45 19.694 20.45 21.474 19.942C22.456 19.662 23.228 18.846 23.498 17.814C24 15.93 24 12 24 12C24 12 24 8.07 23.498 6.186ZM9.545 15.568V8.432L15.818 12L9.545 15.568Z" fill="currentColor"/>
</svg>